<?xml version="1.0" encoding="utf-8"?>
<!-- Generator: Adobe Illustrator 21.0.0, SVG Export Plug-In . SVG Version: 6.00 Build 0)  -->
<svg version="1.1" id="Layer_1" xmlns="http://www.w3.org/2000/svg" xmlns:xlink="http://www.w3.org/1999/xlink" x="0px" y="0px"
	 viewBox="0 0 720 720" style="enable-background:new 0 0 720 720;" xml:space="preserve">
<style type="text/css">
	.st0{stroke:#B6A1C9;stroke-width:3;}
</style>
<path class="st0" d="M360.3,2L49.9,180.6v358L360.3,718l310.3-179.4v-358L360.3,2z M513,266.3l-147.9-85.7V14.9l291.7,168.9
	L513,266.3z M211.6,280l143.8,83.2v165.7l-143.8-83.2V280z M365.1,362.4L509,279.2v165.7l-143.8,84V362.4z M360.3,354.3l-143.8-82.4
	l143.8-83.2l143.8,83.2L360.3,354.3z M355.4,180.6l-147.9,85.7L63.7,183.8L355.4,14.9V180.6z M202.7,274.3v171.3L58.8,528.9V191.1
	L202.7,274.3z M206.7,453.7l148.7,85.7v165.7L63.7,536.2L206.7,453.7z M365.1,539.4l148.7-85.7L657.7,537L365.1,705.1V539.4z
	 M517.9,445.7V274.3l143.8-83.2v337L517.9,445.7z"/>
</svg>
