<?xml version="1.0" encoding="utf-8"?>
<!-- Generator: Adobe Illustrator 21.0.0, SVG Export Plug-In . SVG Version: 6.00 Build 0)  -->
<svg version="1.1" id="Layer_1" xmlns="http://www.w3.org/2000/svg" xmlns:xlink="http://www.w3.org/1999/xlink" x="0px" y="0px"
	 viewBox="0 0 720 720" style="enable-background:new 0 0 720 720;" xml:space="preserve">
<style type="text/css">
	.st0{stroke:#96D3EA;stroke-width:3;}
</style>
<g>
	<path class="st0" d="M395.6,15.4c92.1,51.2,163.8,92.1,245.7,143.3c20.5,10.2,30.7,20.5,30.7,51.2c0,102.4,0,204.7,0,296.8
		c0,20.5-10.2,40.9-30.7,51.2c-92.1,51.2-153.5,92.1-245.7,143.3c-30.7,10.2-40.9,20.5-71.7,0C231.8,650,160.2,609.1,78.3,557.9
		c-20.5-10.2-30.7-20.5-30.7-51.2c0-102.4,0-204.7,0-296.8c0-20.5,10.2-30.7,30.7-51.2c92.1-51.2,163.8-92.1,255.9-143.3
		C354.7,5.1,375.2,5.1,395.6,15.4z M385.4,373.6V650c81.9-51.2,163.8-92.1,235.4-143.3V230.3L385.4,373.6z M344.4,650V373.6
		L109,230.3v276.4C190.9,557.9,272.8,598.8,344.4,650z M129.5,199.6l235.4,143.3l235.4-143.3c-81.9-51.2-163.8-92.1-235.4-143.3
		C283,107.5,201.1,148.4,129.5,199.6z"/>
</g>
</svg>
