<?xml version="1.0" encoding="utf-8"?>
<!-- Generator: Adobe Illustrator 21.0.0, SVG Export Plug-In . SVG Version: 6.00 Build 0)  -->
<svg version="1.1" id="Layer_1" xmlns="http://www.w3.org/2000/svg" xmlns:xlink="http://www.w3.org/1999/xlink" x="0px" y="0px"
	 viewBox="0 0 720 720" style="enable-background:new 0 0 720 720;" xml:space="preserve">
<style type="text/css">
	.st0{fill:#FFA0A3;}
</style>
<g>
	<path class="st0" d="M621.4,98.6v522.7H98.6V98.6H621.4 M646.1,63.3H73.9c-5.8,0-10.6,4.8-10.6,10.6v572.2
		c0,5.8,4.8,10.6,10.6,10.6h572.2c5.8,0,10.6-4.8,10.6-10.6V73.9C656.7,68.1,651.9,63.3,646.1,63.3L646.1,63.3z"/>
</g>
<g>
	<path d="M633.6,86.4v547.3H86.4V86.4H633.6 M640.7,68.7H79.3c-5.8,0-10.6,4.8-10.6,10.6v561.4c0,5.8,4.8,10.6,10.6,10.6h561.4
		c5.8,0,10.6-4.8,10.6-10.6V79.3C651.3,73.5,646.5,68.7,640.7,68.7L640.7,68.7z"/>
</g>
</svg>
