<svg xmlns="http://www.w3.org/2000/svg" xmlns:xlink="http://www.w3.org/1999/xlink" xml:space="preserve" version="1.1" style="shape-rendering:geometricPrecision;text-rendering:geometricPrecision;image-rendering:optimizeQuality;" viewBox="0 0 100 125" x="0px" y="0px" fill-rule="evenodd" clip-rule="evenodd">
	<g><path d="M53 16c9,5 16,9 24,14 2,1 3,2 3,5 0,10 0,20 0,29 0,2 -1,4 -3,5 -9,5 -15,9 -24,14 -3,1 -4,2 -7,0 -9,-5 -16,-9 -24,-14 -2,-1 -3,-2 -3,-5 0,-10 0,-20 0,-29 0,-2 1,-3 3,-5 9,-5 16,-9 25,-14 2,-1 4,-1 6,0zm-1 35l0 27c8,-5 16,-9 23,-14l0 -27 -23 14zm-4 27l0 -27 -23 -14 0 27c8,5 16,9 23,14zm-21 -44l23 14 23 -14c-8,-5 -16,-9 -23,-14 -8,5 -16,9 -23,14z" style="stroke:#96d3ea;stroke-width:3px;" /></g>
</svg>