<svg xmlns="http://www.w3.org/2000/svg" xmlns:xlink="http://www.w3.org/1999/xlink" version="1.1" x="0px" y="0px" viewBox="0 0 90 112.5" style="enable-background:new 0 0 90 90;" xml:space="preserve"><path d="M45,0.7L6.6,22.8v44.3L45,89.3l38.4-22.2V22.8L45,0.7z M63.9,33.4L45.6,22.8V2.3l36.1,20.9L63.9,33.4z   M26.6,35.1l17.8,10.3v20.5L26.6,55.6V35.1z M45.6,45.3l17.8-10.3v20.5L45.6,65.9V45.3z M45,44.3L27.2,34.1L45,23.8l17.8,10.3  L45,44.3z M44.4,22.8L26.1,33.4L8.3,23.2L44.4,2.3V22.8z M25.5,34.4v21.2L7.7,65.9V24.1L25.5,34.4z M26,56.6l18.4,10.6v20.5  L8.3,66.8L26,56.6z M45.6,67.2l18.4-10.6l17.8,10.3L45.6,87.7V67.2z M64.5,55.6V34.4l17.8-10.3v41.7L64.5,55.6z" style="stroke:#b6a1c9;stroke-width:3px;" /></svg>